<svg height="544.25201" viewBox="0 0 544.25201 544.25201" width="544.25201" xmlns="http://www.w3.org/2000/svg" xmlns:xlink="http://www.w3.org/1999/xlink"><linearGradient id="a" gradientUnits="objectBoundingBox" x1="0" x2="0" y1="0" y2="1"><stop offset="0" stop-color="#89bbd5"/><stop offset="1" stop-color="#3c9adb"/></linearGradient><path d="m544.197 378.3101c0 0-50.8672 14.6985-149.2614 75.1629" fill="none" stroke="#000" stroke-linejoin="bevel" stroke-width=".21600001"/><path d="m394.9356 453.473c-88.2102 54.2985-122.8005 90.779-122.8005 90.779" fill="none" stroke="#000" stroke-linejoin="bevel" stroke-width=".21600001"/><path d="m0 356.1795c0 0 114.4877-84.1913 210.1479-19.7082" fill="none" stroke="#000" stroke-linejoin="bevel" stroke-width=".21600001"/><path d="m272.1351 544.252l-272.1351-188.0725" fill="none" stroke="#000" stroke-linejoin="bevel" stroke-width=".21600001"/><path d="m .055 166.1437c0 0 50.8856-14.7169 149.2248-75.1445" fill="none" stroke="#000" stroke-linejoin="bevel" stroke-width=".21600001"/><path d="m149.2798 90.9992c88.2649-54.3169 122.8553-90.8158 122.8553-90.8158" fill="none" stroke="#000" stroke-linejoin="bevel" stroke-width=".21600001"/><path d="m210.1479 336.4713l128.3235 88.0265 15.6529-10.2946-354.0693-248.0595" fill="none" stroke="#000" stroke-linejoin="bevel" stroke-width=".21600001"/><path d="m544.252 188.2559c0 0-114.4693 84.1912-210.1479 19.7082" fill="none" stroke="#000" stroke-linejoin="bevel" stroke-width=".21600001"/><path d="m272.1351.1834l272.1169 188.0725" fill="none" stroke="#000" stroke-linejoin="bevel" stroke-width=".21600001"/><path d="m334.1041 207.9641l-128.3236-88.0447-15.6529 10.2762 354.0694 248.1145" fill="none" stroke="#000" stroke-linejoin="bevel" stroke-width=".21600001"/><path d="m205.7805 119.9194l128.3236 88.0447c95.6786 64.483 210.1479-19.7082 210.1479-19.7082l-272.1169-188.0725c0 0-34.5904 36.4989-122.8553 90.8158-98.3392 60.4276-149.2248 75.1445-149.2248 75.1445l354.0693 248.0595-15.6529 10.2946-128.3235-88.0265c-95.6602-64.4831-210.1479 19.7082-210.1479 19.7082l272.1351 188.0725c0 0 34.5903-36.4805 122.8005-90.779 98.3942-60.4644 149.2614-75.1629 149.2614-75.1629l-354.0694-248.1145z" fill="url(#a)" stroke="#3d9cda" stroke-width=".21600001"/></svg>