<svg height="544.252" viewBox="0 0 544.252 544.252" xmlns="http://www.w3.org/2000/svg">
    <linearGradient id="a" gradientUnits="objectBoundingBox" x2="0" y2="1">
        <stop offset="0" stop-color="#89bbd5"/>
        <stop offset="1" stop-color="#3c9adb"/>
    </linearGradient>
    <path d="M544.197 378.31s-50.867 14.699-149.261 75.163M394.936 453.473c-88.21 54.298-122.8 90.779-122.8 90.779M0 356.18s114.488-84.192 210.148-19.709M272.135 544.252L0 356.18M.055 166.144s50.886-14.717 149.225-75.145M149.28 91C237.545 36.681 272.135.182 272.135.182"
          fill="none" stroke="#000" stroke-linejoin="bevel" stroke-width=".216"/>
    <path d="M210.148 336.471l128.323 88.027 15.653-10.295L.055 166.143M544.252 188.256s-114.47 84.191-210.148 19.708M272.135.183l272.117 188.073"
          fill="none" stroke="#000" stroke-linejoin="bevel" stroke-width=".216"/>
    <path d="M334.104 207.964L205.781 119.92l-15.653 10.277L544.197 378.31" fill="none" stroke="#000"
          stroke-linejoin="bevel" stroke-width=".216"/>
    <path d="M205.78 119.92l128.324 88.044c95.679 64.483 210.148-19.708 210.148-19.708L272.135.183S237.545 36.683 149.28 91C50.94 151.427.055 166.144.055 166.144l354.07 248.06-15.654 10.294-128.323-88.027C114.488 271.988 0 356.18 0 356.18l272.135 188.072s34.59-36.48 122.8-90.779c98.395-60.464 149.262-75.163 149.262-75.163l-354.07-248.114z"
          fill="url(#a)" stroke="#3d9cda" stroke-width=".216"/>
</svg>