<svg xmlns="http://www.w3.org/2000/svg" viewBox="0 0 15.59 15.09"><path d="M7.79 9.09a.51.51 0 0 1-.35-.15L.15 1.66A.61.61 0 0 1 0 1.3.55.55 0 0 1 .15.94L.94.16a.46.46 0 0 1 .66 0L7.79 6.3 13.93.16a.52.52 0 0 1 .32-.16.48.48 0 0 1 .36.16l.78.78a.48.48 0 0 1 .16.36.52.52 0 0 1-.16.35L8.15 8.94a.55.55 0 0 1-.36.15zm0 6a.51.51 0 0 1-.35-.15L.15 7.66A.61.61 0 0 1 0 7.3a.55.55 0 0 1 .15-.36l.79-.78a.46.46 0 0 1 .66 0l6.14 6.14 6.14-6.14a.52.52 0 0 1 .37-.16.48.48 0 0 1 .36.16l.78.78a.48.48 0 0 1 .16.36.52.52 0 0 1-.16.36l-7.24 7.28a.55.55 0 0 1-.36.15z"/></svg>