<svg xmlns="http://www.w3.org/2000/svg" viewBox="0 0 15.59 15.09"><path d="M7.8 6a.53.53 0 0 1 .35.15l7.29 7.28a.61.61 0 0 1 .15.36.55.55 0 0 1-.15.36l-.79.78a.46.46 0 0 1-.66.05l-.05-.05L7.8 8.75l-6.14 6.18a.57.57 0 0 1-.36.16.48.48 0 0 1-.36-.16l-.78-.78a.48.48 0 0 1-.16-.4.48.48 0 0 1 .16-.35l7.28-7.25A.53.53 0 0 1 7.8 6zm0-6a.53.53 0 0 1 .35.15l7.29 7.28a.61.61 0 0 1 .15.36.55.55 0 0 1-.15.36l-.79.78a.46.46 0 0 1-.66.05l-.05-.05L7.8 2.75 1.66 8.93a.57.57 0 0 1-.36.16.48.48 0 0 1-.36-.16l-.78-.78a.48.48 0 0 1-.16-.4.52.52 0 0 1 .16-.36L7.44.15A.53.53 0 0 1 7.8 0z"/></svg>