<svg xmlns="http://www.w3.org/2000/svg" viewBox="0 0 15.09 15.59"><path d="M6 7.79a.51.51 0 0 1 .15-.35L13.43.15a.58.58 0 0 1 .36-.15.55.55 0 0 1 .36.15l.78.79a.46.46 0 0 1 0 .66L8.79 7.79l6.14 6.14a.6.6 0 0 1 .16.36.48.48 0 0 1-.16.36l-.78.78a.52.52 0 0 1-.36.16.46.46 0 0 1-.35-.16L6.15 8.15A.51.51 0 0 1 6 7.79zm-6 0a.51.51 0 0 1 .15-.35L7.43.15A.58.58 0 0 1 7.79 0a.55.55 0 0 1 .36.15l.78.79A.46.46 0 0 1 9 1.6L2.79 7.79l6.14 6.14a.6.6 0 0 1 .16.36.48.48 0 0 1-.16.36l-.78.78a.49.49 0 0 1-.72 0L.15 8.15A.51.51 0 0 1 0 7.79z"/></svg>